<svg width="251" height="114" viewBox="0 0 251 114" fill="none" xmlns="http://www.w3.org/2000/svg">
<circle cx="55.75" cy="60.5" r="36.5" fill="white" stroke="#CF8F38" stroke-width="2"/>
<rect x="53.25" y="23" width="6" height="5" fill="white"/>
<path d="M35 67L36.5 65.5L38.5 64.5L40 60H42L43.5 55.5L45.5 55L45 51.5L51.5 50L52.5 52.5L55 51.5L59 52.5L61 55.5H63L64.5 58L74.5 57.5C73 59.5 68.9142 63.5858 67.5 65C66 66.5 64.8333 70 64.5 71.5H58.5C55.3333 70.6667 48 67.5 45 67C41.9951 66.4992 37.1667 66.5 35 67Z" fill="#FF2E2E" fill-opacity="0.61" stroke="#FF2E2E" stroke-opacity="0.61" stroke-width="0.3"/>
<path d="M51 51L46.5 52L47 54.5L51.5 52.5L51 51Z" fill="#05254B"/>
<path d="M55 52L44 56.5L43 59L55 54.5L59.5 55L58.5 53L55 52Z" fill="#05254B"/>
<path d="M51 51L46.5 52L47 54.5L51.5 52.5L51 51Z" stroke="#05254B" stroke-width="0.3"/>
<path d="M55 52L44 56.5L43 59L55 54.5L59.5 55L58.5 53L55 52Z" stroke="#05254B" stroke-width="0.3"/>
<path d="M35 67L36.5 65.5L56 58.5L55 56L62.5 56.5L63.5 58L39 65L38.5 66L41 65.5L44.5 64.5L64.5 59L74.5 57.5C73 59.5 68.9142 63.5858 67.5 65C66 66.5 64.8333 70 64.5 71.5H58.5C55.3333 70.6667 48 67.5 45 67C41.9951 66.4992 37.1667 66.5 35 67Z" fill="#05254B" stroke="#05254B" stroke-width="0.3"/>
<path d="M49 76.5C42.6825 72.1263 35.5 73.3333 32 74.5C40 74.1 47.5 80.5 51.5 82C60.5 84.5 68.1667 80 71 77C66.5 79 55.5 81 49 76.5Z" fill="#05254B"/>
<path d="M52.5 71.5C38 65.1956 30.8333 70.1666 28 73.5C32.1667 72.6666 36.1369 68.9862 53.5 77C63.9 81.8 76.5 73 77 68.5C73 72 64 76.5 52.5 71.5Z" fill="#04244A"/>
<path d="M40.5 59.5001H41.5L43 55L45 54.5001L44.5 51.0001L52 49.5001L53 51.5L55 51L59.5 52L62 55.0001H64L65 57.0001H70C70 55.0001 66.2548 44.5 55.5 44.5C44 44.5 41 55 40.5 59.5001Z" fill="#CF8F38"/>
<path d="M39.5 60C36.8285 59.8786 32.3166 60.1995 30.3738 60.3827C29.9505 60.457 29.6436 60.5 29.5 60.5C29.2829 60.5 29.6501 60.4509 30.3738 60.3827C32.3085 60.0428 36.6753 59.047 39 58.5V57.5V57.0001L30.5 54.5001H40L39.5 54L36.5 52.5L40 53.5L40.5 53L32.5 48.5L41.5 51.0001L38.5 48.5L42 50L35.5 43L43.5 47.5L41.5 44.5L44 47L39.5 39L46 45L45 41.5L47 44.5L44.5 36L49 43V40L50.5 43L50 33.5L53 42L53.5 39L54 42L55.5 32L56.5 41.5L57.5 38.5V41.5L61 34L60.5 42.5L61.5 40V43L66.2548 36L64 44.5L66.2548 41.5L64.5 45L72 39L66.2548 47L70 45L67 47.5L75.5 43.5L69 50L73 48L69.5 51.0001L78 48.5L70.5 53.5L75.5 53L71 54.5001H80L71 57.0001C70.323 52.1667 66.2548 43.5962 55.5 43.5C43.0005 43.3882 40.3438 54.1667 39.5 60Z" fill="#CF8F38"/>
<rect x="53.25" y="93" width="6" height="5" fill="white"/>
<rect x="18.25" y="58" width="6" height="5" fill="white"/>
<rect x="87.25" y="58" width="6" height="5" fill="white"/>
<path d="M78.75 37L82.75 33L85.166 36.1408C86.8847 38.3751 88.3847 40.7694 89.6453 43.2907L91.25 46.5L87.25 49.5L78.75 37Z" fill="white"/>
<g clip-path="url(#clip0_38_186)">
<path fill-rule="evenodd" clip-rule="evenodd" d="M84.6733 42.0591C84.7464 41.7249 84.999 41.4374 85.3744 41.1356L83.9059 39.6334C83.8085 39.5611 83.8258 39.4928 83.9061 39.4251L84.3391 39.18C84.4141 39.1519 84.488 39.1488 84.5588 39.1867L86.5923 40.0173L88.785 38.4056L85.301 34.6098C85.2107 34.5235 85.2176 34.4494 85.3429 34.3888L86.0432 34.0227L91.064 36.7561L93.0303 35.3298C93.6655 34.9644 94.2283 34.8612 94.6025 35.0489C94.8087 35.1526 94.8711 35.2373 94.8923 35.4659C94.9325 35.9141 94.6072 36.4343 94.001 36.9111L91.9499 38.1991L92.2453 44.125L91.6379 44.6424C91.5337 44.7362 91.4665 44.7121 91.4287 44.5911L89.5746 39.6941L87.269 41.1207L87.1488 43.4065C87.1525 43.489 87.1201 43.5584 87.0637 43.6191L86.6719 43.9313C86.5807 43.9802 86.5135 43.9682 86.491 43.8453L85.7947 41.8214C85.3758 42.0556 85.0217 42.1779 84.7001 42.1083C84.6708 42.1011 84.6668 42.089 84.6733 42.0591Z" fill="#D39035"/>
</g>
<path d="M35 67L36.5 65.5L38.5 64.5L40 60H42L43.5 55.5L45.5 55L45 51.5L51.5 50L52.5 52.5L55 51.5L59 52.5L61 55.5H63L64.5 58L74.5 57.5C73 59.5 68.9142 63.5858 67.5 65C66 66.5 64.8333 70 64.5 71.5H58.5C55.3333 70.6667 48 67.5 45 67C41.9951 66.4992 37.1667 66.5 35 67Z" fill="white" stroke="white" stroke-width="0.3"/>
<path d="M51 51L46.5 52L47 54.5L51.5 52.5L51 51Z" fill="#05254B"/>
<path d="M55 52L44 56.5L43 59L55 54.5L59.5 55L58.5 53L55 52Z" fill="#05254B"/>
<path d="M51 51L46.5 52L47 54.5L51.5 52.5L51 51Z" stroke="#05254B" stroke-width="0.3"/>
<path d="M55 52L44 56.5L43 59L55 54.5L59.5 55L58.5 53L55 52Z" stroke="#05254B" stroke-width="0.3"/>
<path d="M35 67L36.5 65.5L56 58.5L55 56L62.5 56.5L63.5 58L39 65L38.5 66L41 65.5L44.5 64.5L64.5 59L74.5 57.5C73 59.5 68.9142 63.5858 67.5 65C66 66.5 64.8333 70 64.5 71.5H58.5C55.3333 70.6667 48 67.5 45 67C41.9951 66.4992 37.1667 66.5 35 67Z" fill="#05254B" stroke="#05254B" stroke-width="0.3"/>
<path d="M49 76.5C42.6825 72.1263 35.5 73.3333 32 74.5C40 74.1 47.5 80.5 51.5 82C60.5 84.5 68.1667 80 71 77C66.5 79 55.5 81 49 76.5Z" fill="#05254B"/>
<path d="M52.5 71.5C38 65.1956 30.8333 70.1666 28 73.5C32.1667 72.6666 36.1369 68.9862 53.5 77C63.9 81.8 76.5 73 77 68.5C73 72 64 76.5 52.5 71.5Z" fill="#04244A"/>
<path d="M56.25 19L55.25 25.5H57.25L56.25 19Z" fill="#D39035" stroke="#CF8F38" stroke-width="0.3"/>
<path d="M56.25 102.5L57.25 96H55.25L56.25 102.5Z" fill="#D39035" stroke="#CF8F38" stroke-width="0.3"/>
<path d="M14 60.25L20.5 61.25V59.25L14 60.25Z" fill="#D39035" stroke="#CF8F38" stroke-width="0.3"/>
<path d="M97.75 60L91.25 61V59L97.75 60Z" fill="#D39035" stroke="#CF8F38" stroke-width="0.3"/>
<path d="M105.8 64.01H99.48V63.45L100.42 62.71V57.12L99.31 56.79L99.64 56.14H105.7L106.42 55.96V58.51L105.87 58.73L104.64 56.9H102.23V59.6H103.42L104.15 58.48H104.71V61.39L104.06 61.72L103.41 60.37H102.23V63.24H104.56L105.97 61.2L106.52 61.43V64.19L105.8 64.01Z" fill="white"/>
<path d="M12.81 57.46L10.58 63.67L8.86 64.18L7.44 60.16L6.32 63.67L4.59 64.18L1.94 57.27L0.95 56.78L1.27 56.13H4.51V56.69L3.81 57.21L5.8 62.5L6.97 58.85L6.41 57.27L5.5 56.79L5.82 56.14H9.32V56.7L8.32 57.32L10.09 62.51L11.84 57.53L10.26 56.79L10.59 56.14H13.81L13.82 56.69L12.81 57.46Z" fill="white"/>
<path d="M58.83 10.5V17H57.97L53.28 11.65V15.82L54.7 16.35L54.38 17H51.48V16.44L52.42 15.65V10.4L51.31 9.79L51.64 9.14H53.4L57.97 14.34V10.31L56.55 9.79L56.88 9.14H59.78V9.7L58.83 10.5Z" fill="white"/>
<path d="M56.65 111.35C56.65 111.15 56.57 110.96 56.41 110.78C56.2567 110.6 56.06 110.433 55.82 110.28C55.58 110.127 55.26 109.94 54.86 109.72C54.3667 109.447 53.9633 109.207 53.65 109C53.3433 108.793 53.0833 108.553 52.87 108.28C52.6567 108.007 52.55 107.707 52.55 107.38C52.55 107.047 52.7033 106.69 53.01 106.31C53.3167 105.923 53.69 105.6 54.13 105.34C54.5767 105.073 54.9867 104.94 55.36 104.94C55.8067 104.94 56.33 104.99 56.93 105.09C57.53 105.19 57.97 105.297 58.25 105.41V107.6H57.31C57.03 107.06 56.72 106.64 56.38 106.34C56.0467 106.04 55.6933 105.89 55.32 105.89C55.0533 105.89 54.8433 105.977 54.69 106.15C54.5367 106.317 54.46 106.53 54.46 106.79C54.46 107.003 54.54 107.207 54.7 107.4C54.8667 107.587 55.07 107.76 55.31 107.92C55.5567 108.073 55.8867 108.263 56.3 108.49C56.7867 108.757 57.18 108.99 57.48 109.19C57.78 109.39 58.0333 109.623 58.24 109.89C58.4467 110.157 58.55 110.45 58.55 110.77C58.55 111.103 58.3867 111.463 58.06 111.85C57.7333 112.23 57.3333 112.553 56.86 112.82C56.3933 113.08 55.9667 113.21 55.58 113.21C55.1133 113.21 54.5533 113.16 53.9 113.06C53.2533 112.96 52.7867 112.853 52.5 112.74V110.55H53.44C53.7333 111.09 54.0733 111.51 54.46 111.81C54.8467 112.11 55.2367 112.26 55.63 112.26C55.9367 112.26 56.1833 112.173 56.37 112C56.5567 111.82 56.65 111.603 56.65 111.35Z" fill="white"/>
<path d="M65 61.5L66.5 61V62.5H64.5L65 61.5Z" fill="white"/>
<path d="M84.5 42.5L75 54.5H77L84.5 42.5Z" fill="#04244A"/>
<path d="M112.75 61.4H113.425V63.02L114.805 64.4H119.635L112.9 56.465V54.395L114.295 53H120.19L121.24 54.05V52.85H121.915V56.6H121.24V54.98L119.86 53.6H115.48L122.215 61.535V63.605L120.82 65H114.475L113.425 63.95V65.15H112.75V61.4ZM128.032 56.94C128.765 56.94 129.412 57.11 129.972 57.45C130.538 57.79 130.975 58.26 131.282 58.86C131.588 59.46 131.742 60.14 131.742 60.9C131.742 61.68 131.508 62.4 131.042 63.06C130.575 63.72 129.995 64.2433 129.302 64.63C128.608 65.01 127.948 65.2 127.322 65.2C126.595 65.2 125.952 65.0333 125.392 64.7C124.832 64.36 124.395 63.89 124.082 63.29C123.775 62.69 123.622 62.01 123.622 61.25C123.622 60.47 123.855 59.75 124.322 59.09C124.788 58.4233 125.365 57.9 126.052 57.52C126.745 57.1333 127.405 56.94 128.032 56.94ZM127.452 57.9C127.038 57.9 126.662 58.0233 126.322 58.27C125.982 58.5167 125.712 58.86 125.512 59.3C125.318 59.74 125.222 60.23 125.222 60.77C125.222 61.4033 125.318 61.9833 125.512 62.51C125.712 63.03 126.012 63.4467 126.412 63.76C126.812 64.0733 127.308 64.23 127.902 64.23C128.315 64.23 128.692 64.1067 129.032 63.86C129.378 63.6133 129.648 63.2733 129.842 62.84C130.042 62.4 130.142 61.91 130.142 61.37C130.142 60.73 130.042 60.15 129.842 59.63C129.648 59.1033 129.348 58.6833 128.942 58.37C128.542 58.0567 128.045 57.9 127.452 57.9ZM139.106 65H132.946V64.59L133.886 63.85V57.96L132.826 57.64L133.076 57.14H136.316V57.55L135.366 58.29V64.42H137.816L139.316 62.23L139.716 62.38V65.18L139.106 65ZM143.895 64.17L144.975 64.5L144.725 65H141.505V64.59L142.445 63.85V62.25L139.835 58.07L139.055 57.64L139.265 57.14H142.455V57.55L141.595 58.21L143.505 61.27L145.475 58.3L143.925 57.64L144.175 57.14H147.295V57.55L146.415 58.13L143.895 61.96V64.17ZM157.638 65H154.398V64.59L155.338 63.85V58.61L152.738 65H152.068L149.468 58.57V64.01L150.538 64.5L150.288 65H147.848V64.59L148.788 63.85V58.15L147.728 57.64L147.978 57.14H150.398L152.808 63.14L155.208 57.14H157.758V57.55L156.808 58.29V64.17L157.888 64.5L157.638 65ZM166.974 65H163.654V64.59L164.654 63.9L163.944 62.18H160.694L159.984 63.85L161.644 64.5L161.394 65H158.284V64.59L159.284 63.82L162.004 57.46L163.314 56.95L166.204 63.93L167.224 64.5L166.974 65ZM162.354 58.31L160.944 61.61H163.714L162.354 58.31ZM175.191 65H173.201L171.111 61.49L170.661 61.17L170.841 60.8H171.371C171.784 60.8 172.111 60.6867 172.351 60.46C172.591 60.2333 172.711 59.92 172.711 59.52C172.711 59.0133 172.571 58.5967 172.291 58.27C172.017 57.9433 171.617 57.78 171.091 57.78C170.744 57.78 170.427 57.8833 170.141 58.09V64.16L171.211 64.5L170.961 65H167.721V64.59L168.661 63.83V57.96L167.601 57.64L167.851 57.14H169.211C169.804 57.14 170.387 57.12 170.961 57.08C171.387 57.0533 171.701 57.04 171.901 57.04C172.374 57.04 172.794 57.13 173.161 57.31C173.527 57.49 173.811 57.7367 174.011 58.05C174.211 58.3567 174.311 58.6967 174.311 59.07C174.311 59.5567 174.101 60.0033 173.681 60.41C173.261 60.8167 172.754 61.1167 172.161 61.31L172.881 61.54L174.331 63.97L175.441 64.5L175.191 65Z" fill="white"/>
<path d="M184.093 65H180.773V64.59L181.773 63.9L181.063 62.18H177.813L177.103 63.85L178.763 64.5L178.513 65H175.403V64.59L176.403 63.82L179.123 57.46L180.433 56.95L183.323 63.93L184.343 64.5L184.093 65ZM179.473 58.31L178.063 61.61H180.833L179.473 58.31ZM190.979 58.32L188.259 64.68L186.939 65.19L184.049 58.2L183.039 57.64L183.299 57.14H186.609V57.55L185.609 58.25L187.919 63.85L190.279 58.29L188.609 57.64L188.859 57.14H191.979V57.55L190.979 58.32ZM198.656 65H192.526V64.59L193.466 63.85V57.98L192.406 57.64L192.656 57.14H198.556L199.166 56.96V59.36L198.766 59.51L197.556 57.71H194.946V60.7H196.356L197.096 59.48H197.506V62.47L197.006 62.72L196.366 61.27H194.946V64.42H197.506L198.866 62.43L199.266 62.58V65.18L198.656 65ZM207.719 58.31V65H207.039L202.319 59.25V63.97L203.519 64.5L203.269 65H200.699V64.59L201.639 63.83V58.22L200.579 57.64L200.829 57.14H202.439L207.039 62.73V58.15L205.849 57.64L206.099 57.14H208.669V57.55L207.719 58.31ZM216.757 59.56L216.357 59.71L214.997 57.71H213.897V64.17L214.967 64.5L214.717 65H211.477V64.59L212.417 63.85V57.71H211.347L209.987 59.71L209.587 59.56V56.96L210.197 57.14H216.147L216.757 56.96V59.56ZM225.136 58.29V61.9C225.136 62.6 224.966 63.2 224.626 63.7C224.286 64.2 223.863 64.5767 223.356 64.83C222.856 65.0767 222.366 65.2 221.886 65.2C221.273 65.2 220.723 65.07 220.236 64.81C219.756 64.5433 219.38 64.18 219.106 63.72C218.833 63.2533 218.696 62.73 218.696 62.15V57.96L217.636 57.64L217.886 57.14H221.126V57.55L220.176 58.29V61.72C220.176 62.5133 220.373 63.13 220.766 63.57C221.166 64.01 221.766 64.23 222.566 64.23C222.866 64.23 223.163 64.1367 223.456 63.95C223.75 63.7567 223.99 63.4767 224.176 63.11C224.37 62.7433 224.466 62.3133 224.466 61.82V58.13L223.376 57.64L223.626 57.14H226.086V57.55L225.136 58.29ZM234.351 65H232.361L230.271 61.49L229.821 61.17L230.001 60.8H230.531C230.944 60.8 231.271 60.6867 231.511 60.46C231.751 60.2333 231.871 59.92 231.871 59.52C231.871 59.0133 231.731 58.5967 231.451 58.27C231.177 57.9433 230.777 57.78 230.251 57.78C229.904 57.78 229.587 57.8833 229.301 58.09V64.16L230.371 64.5L230.121 65H226.881V64.59L227.821 63.83V57.96L226.761 57.64L227.011 57.14H228.371C228.964 57.14 229.547 57.12 230.121 57.08C230.547 57.0533 230.861 57.04 231.061 57.04C231.534 57.04 231.954 57.13 232.321 57.31C232.687 57.49 232.971 57.7367 233.171 58.05C233.371 58.3567 233.471 58.6967 233.471 59.07C233.471 59.5567 233.261 60.0033 232.841 60.41C232.421 60.8167 231.914 61.1167 231.321 61.31L232.041 61.54L233.491 63.97L234.601 64.5L234.351 65ZM243.253 65H239.933V64.59L240.933 63.9L240.223 62.18H236.973L236.263 63.85L237.923 64.5L237.673 65H234.563V64.59L235.563 63.82L238.283 57.46L239.593 56.95L242.483 63.93L243.503 64.5L243.253 65ZM238.633 58.31L237.223 61.61H239.993L238.633 58.31ZM248.33 63.28C248.33 63.0733 248.247 62.88 248.08 62.7C247.92 62.52 247.72 62.3567 247.48 62.21C247.24 62.0567 246.907 61.8667 246.48 61.64C245.98 61.3733 245.577 61.1433 245.27 60.95C244.963 60.75 244.7 60.52 244.48 60.26C244.267 59.9933 244.16 59.7 244.16 59.38C244.16 59.0467 244.303 58.69 244.59 58.31C244.883 57.9233 245.24 57.6 245.66 57.34C246.08 57.0733 246.467 56.94 246.82 56.94C247.247 56.94 247.743 56.99 248.31 57.09C248.883 57.19 249.3 57.2967 249.56 57.41V59.45H248.96C248.653 58.91 248.313 58.49 247.94 58.19C247.573 57.89 247.187 57.74 246.78 57.74C246.44 57.74 246.173 57.8467 245.98 58.06C245.787 58.2667 245.69 58.5367 245.69 58.87C245.69 59.09 245.773 59.2967 245.94 59.49C246.107 59.6767 246.313 59.8467 246.56 60C246.813 60.1533 247.153 60.34 247.58 60.56C248.067 60.8133 248.463 61.0367 248.77 61.23C249.077 61.4233 249.333 61.65 249.54 61.91C249.753 62.17 249.86 62.4567 249.86 62.77C249.86 63.1033 249.703 63.4633 249.39 63.85C249.083 64.23 248.707 64.5533 248.26 64.82C247.813 65.08 247.407 65.21 247.04 65.21C246.593 65.21 246.06 65.16 245.44 65.06C244.827 64.96 244.383 64.8533 244.11 64.74V62.7H244.72C245.04 63.24 245.407 63.66 245.82 63.96C246.233 64.26 246.657 64.41 247.09 64.41C247.463 64.41 247.763 64.3 247.99 64.08C248.217 63.8533 248.33 63.5867 248.33 63.28Z" fill="#CF8F38"/>
<rect x="42.9946" y="60.2864" width="1.5" height="2" transform="rotate(-20.3767 42.9946 60.2864)" fill="#05254B"/>
<rect x="49" y="57.9" width="1.5" height="2" transform="rotate(-20.3767 49 57.9)" fill="#05254B"/>
<rect x="44.9153" y="59.4747" width="1.5" height="2" transform="rotate(-20.3767 44.9153 59.4747)" fill="#05254B"/>
<rect x="50.9207" y="57.15" width="1.5" height="2" transform="rotate(-20.3767 50.9207 57.15)" fill="#05254B"/>
<rect x="46.8394" y="58.71" width="1.5" height="2" transform="rotate(-20.3767 46.8394 58.71)" fill="#05254B"/>
<rect x="52.8447" y="56.42" width="1.5" height="2" transform="rotate(-20.3767 52.8447 56.42)" fill="#05254B"/>
<defs>
<clipPath id="clip0_38_186">
<rect width="9.9854" height="10.4303" fill="white" transform="translate(85.25 33) rotate(12.2046)"/>
</clipPath>
</defs>
</svg>
